<svg width="48" height="48" viewBox="0 0 48 48" fill="none" xmlns="http://www.w3.org/2000/svg">
<circle cx="23.9982" cy="23.9982" r="23.9982" fill="#EAFFF8"/>
<path d="M32.8642 10.4992C36.3681 10.5 36.6949 13.9241 36.7003 13.9824L41.1313 12.4122L41.8499 14.3281C42.2472 15.3886 41.8163 16.5811 40.8322 17.1433L36.7003 19.5015L41.1286 19.4956V19.6304C41.1292 21.2135 39.8931 22.4984 38.3688 22.4984H37.4186C35.6885 22.499 34.5008 24.3071 35.1312 25.9815L39.0844 36.4836C39.2691 36.9738 38.9078 37.497 38.3835 37.4973H32.4654L31.4302 35.3353C30.3023 32.9814 27.9891 31.4929 25.4592 31.4917L20.4283 31.4917L20.4253 34.4945L17.5454 34.4975L17.5425 37.4973H8.88818V31.4947L11.7622 31.4917L11.7681 25.4952L8.88818 25.4981V22.4984L5.99951 22.4954V19.4956L20.4253 19.5015V22.4954H23.3081V19.4956L20.4283 19.4986V16.5046L23.3081 16.5017V13.4961H20.4253V10.5022L23.3111 10.4992L32.8642 10.4992ZM23.3111 19.4927H26.1997V16.5076L23.3081 16.5017L23.3111 19.4927ZM32.8642 13.4961C32.066 13.4961 31.4188 14.1694 31.4185 14.9989V16.5017H34.3101L34.3071 14.9989C34.3068 14.1698 33.6618 13.4968 32.8642 13.4961Z" fill="black"/>
</svg>
