<svg width="490" height="134" viewBox="0 0 490 134" fill="none" xmlns="http://www.w3.org/2000/svg">
<path d="M323.949 116.083H306.728C295.316 116.083 286.031 106.797 286.031 95.3856C286.031 83.9739 295.316 74.6881 306.728 74.6881H323.949V56.9128H306.728C285.512 56.9128 268.255 74.1691 268.255 95.3856C268.255 116.602 285.512 133.858 306.728 133.858H341.724V74.6881H323.949V116.083Z" fill="black"/>
<path d="M268.76 32.1626L239.389 77.2478L209.142 32.1626H187.741L230.608 96.0683V133.859H248.383V96.0043L289.97 32.1626H268.76Z" fill="black"/>
<path d="M370.724 133.86H352.949V72.4144C352.949 51.1979 370.205 33.9416 391.422 33.9416C412.639 33.9416 429.895 51.1979 429.895 72.4144H412.12C412.12 61.0027 402.834 51.7169 391.422 51.7169C380.01 51.7169 370.724 61.0027 370.724 72.4144V133.86Z" fill="black"/>
<path d="M429.88 133.86H412.105V72.4144C412.105 51.1979 429.361 33.9416 450.578 33.9416C471.794 33.9416 489.051 51.1979 489.051 72.4144H471.275C471.275 61.0027 461.99 51.7169 450.578 51.7169C439.166 51.7169 429.88 61.0027 429.88 72.4144V133.86Z" fill="black"/>
<path d="M401.045 74.6895H357.495V91.0428H401.045V74.6895Z" fill="black"/>
<path d="M459.871 74.6895H416.322V91.0428H459.871V74.6895Z" fill="black"/>
<path d="M132.84 1C150.167 1.00399 151.783 17.8721 151.809 18.1589L173.72 10.4238L177.273 19.8619C179.238 25.0864 177.107 30.9611 172.241 33.7304L151.809 45.3478L173.706 45.3188V45.9828C173.709 53.7818 167.597 60.1111 160.06 60.1111H155.361C146.806 60.1141 140.933 69.0215 144.05 77.27L163.598 129.007C164.512 131.421 162.725 133.998 160.132 134H130.868L125.75 123.35C120.173 111.754 108.734 104.421 96.2246 104.415L71.3473 104.415L71.3328 119.207L57.0924 119.222L57.0778 134H14.2839V104.43L28.4955 104.415L28.5244 74.8744L14.2839 74.8889V60.1111L0 60.0966V45.3189L71.3328 45.3478V60.0966H85.5877V45.3189L71.3473 45.3333V30.5844L85.5877 30.5701V15.7633H71.3328V1.0145L85.6022 1.00002L132.84 1ZM85.6022 45.3045H99.8861V30.5989L85.5877 30.5701L85.6022 45.3045ZM132.84 15.7633C128.893 15.7633 125.693 19.0802 125.692 23.1667V30.57H139.991L139.976 23.1667C139.974 19.0824 136.785 15.7668 132.84 15.7633Z" fill="black"/>
</svg>
